<?xml version="1.0" encoding="UTF-8" standalone="no"?>
<svg xmlns="http://www.w3.org/2000/svg" xmlns:l="http://www.w3.org/1999/xlink" preserveAspectRatio="xMidYMid" version="1.1" width='297mm' height='210mm' viewBox='297 210'>
<defs>
<clipPath id='c'><rect width='2000' height='1000'/></clipPath>
<g id='a' clip-path='url(#c)'>
  <g
     transform="matrix(15.517241,0,0,15.517243,50,34.410648)"
     id="g96">
    <path
       transform="matrix(0.789,0.614,-0.614,0.789,12.616,-9.698)"
       fill="#95a5a5"
       d="m 17.522,11.537 h 5.837 v 4 h -5.837 z"
       id="Rectangle-path" />
    <path
       fill="#2fa8cc"
       d="M 52.558,59 H 5.442 C 4.5800492,59.0011 3.814376,58.449785 3.542,57.632 L 2,53 29,51 56,53 54.456,57.632 C 54.183856,58.449085 53.419215,59.000207 52.558,59 Z"
       id="Shape" />
    <path
       fill="#f3d55b"
       d="M 41.01,27 H 52 c 1.103202,0.0033 1.996705,0.896798 2,2 V 49 H 4 V 29 c 0.00329,-1.103202 0.8967981,-1.996705 2,-2 z"
       id="path82" />
    <path
       fill="#bdc3c7"
       d="m 41.79,28.87 -0.61,0.79 c -0.975864,1.257315 -2.4113,2.075385 -3.990424,2.274182 C 35.610453,32.132979 34.017044,31.696213 32.76,30.72 L 31,29.35 V 28 c 0,-0.552285 -0.447715,-1 -1,-1 H 27.98 L 20.13,20.89 C 19.709233,20.567262 19.435343,20.089371 19.369568,19.563179 19.303794,19.036986 19.451623,18.506381 19.78,18.09 l 3.68,-4.74 17.55,13.65 0.6,0.47 c 0.210684,0.160956 0.348252,0.399482 0.382062,0.662449 0.03381,0.262967 -0.03895,0.528535 -0.202062,0.737551 z"
       id="path84" />
    <path
       transform="matrix(0.789,0.614,-0.614,0.789,7.333,-5.466)"
       fill="#35495e"
       d="M 4.5175288,4.9527105 H 19.744529 v 5 c 0,0.5522845 -0.447715,1.0000005 -1,1.0000005 H 6.5175288 c -1.6568542,0 -3,-1.3431462 -3,-3.0000005 v -2 c 0,-0.5522848 0.4477153,-1 1,-1 z"
       id="path86" />
    <path
       fill="#f5efca"
       d="M 10,32 H 8 C 7.4477152,32 7,31.552285 7,31 7,30.447715 7.4477152,30 8,30 h 2 c 0.552285,0 1,0.447715 1,1 0,0.552285 -0.447715,1 -1,1 z"
       id="path88" />
    <path
       fill="#f5efca"
       d="M 26,32 H 14 c -0.552285,0 -1,-0.447715 -1,-1 0,-0.552285 0.447715,-1 1,-1 h 12 c 0.552285,0 1,0.447715 1,1 0,0.552285 -0.447715,1 -1,1 z"
       id="path90" />
    <path
       fill="#f0c419"
       d="m 4,46 h 50 v 4 H 4 Z"
       id="path92" />
    <path
       fill="#67b9cc"
       d="m 0,49 h 58 v 2 c 0,1.104569 -0.895431,2 -2,2 H 2 C 0.8954305,53 0,52.104569 0,51 Z"
       id="path94" />
  </g>
  <g
     transform="matrix(1.2,0,0,1.2,-199.99998,6.4697563e-8)"
     id="g2873">
    <g
       id="g2570"
       transform="matrix(0.55803568,0,0,0.55803571,667.51148,196.79163)"
       style="opacity:0.5">
      <image
         l:href="tiles/6330-2616.jpg"
         y="-352.6506"
         x="595.81946"
         width="256"
         height="256"
         id="image2256" />
      <image
         l:href="tiles/6330-2617.jpg"
         y="-352.6506"
         x="851.81946"
         width="256"
         height="256"
         id="image2258" />
      <image
         l:href="tiles/6330-2618.jpg"
         y="-352.6506"
         x="1107.8195"
         width="256"
         height="256"
         id="image2260" />
      <image
         l:href="tiles/6330-2619.jpg"
         y="-352.6506"
         x="1363.8195"
         width="256"
         height="256"
         id="image2262" />
      <image
         l:href="tiles/6330-2620.jpg"
         y="-352.6506"
         x="1619.8195"
         width="256"
         height="256"
         id="image2264" />
      <image
         l:href="tiles/6330-2621.jpg"
         y="-352.6506"
         x="1875.8195"
         width="256"
         height="256"
         id="image2266" />
      <image
         l:href="tiles/6330-2622.jpg"
         y="-352.6506"
         x="2131.8196"
         width="256"
         height="256"
         id="image2268" />
      <image
         l:href="tiles/6331-2616.jpg"
         y="-96.650604"
         x="595.81946"
         width="256"
         height="256"
         id="image2270" />
      <image
         l:href="tiles/6331-2617.jpg"
         y="-96.650604"
         x="851.81946"
         width="256"
         height="256"
         id="image2272" />
      <image
         l:href="tiles/6331-2618.jpg"
         y="-96.650604"
         x="1107.8195"
         width="256"
         height="256"
         id="image2274" />
      <image
         l:href="tiles/6331-2619.jpg"
         y="-96.650604"
         x="1363.8195"
         width="256"
         height="256"
         id="image2276" />
      <image
         l:href="tiles/6331-2620.jpg"
         y="-96.650604"
         x="1619.8195"
         width="256"
         height="256"
         id="image2278" />
      <image
         l:href="tiles/6331-2621.jpg"
         y="-96.650604"
         x="1875.8195"
         width="256"
         height="256"
         id="image2280" />
      <image
         l:href="tiles/6331-2622.jpg"
         y="-96.650604"
         x="2131.8196"
         width="256"
         height="256"
         id="image2282" />
      <image
         l:href="tiles/6332-2616.jpg"
         y="159.3494"
         x="595.81946"
         width="256"
         height="256"
         id="image2284" />
      <image
         l:href="tiles/6332-2617.jpg"
         y="159.3494"
         x="851.81946"
         width="256"
         height="256"
         id="image2286" />
      <image
         l:href="tiles/6332-2618.jpg"
         y="159.3494"
         x="1107.8195"
         width="256"
         height="256"
         id="image2288" />
      <image
         l:href="tiles/6332-2619.jpg"
         y="159.3494"
         x="1363.8195"
         width="256"
         height="256"
         id="image2290" />
      <image
         l:href="tiles/6332-2620.jpg"
         y="159.3494"
         x="1619.8195"
         width="256"
         height="256"
         id="image2292" />
      <image
         l:href="tiles/6332-2621.jpg"
         y="159.3494"
         x="1875.8195"
         width="256"
         height="256"
         id="image2294" />
      <image
         l:href="tiles/6332-2622.jpg"
         y="159.3494"
         x="2131.8196"
         width="256"
         height="256"
         id="image2296" />
      <image
         l:href="tiles/6333-2616.jpg"
         y="415.3494"
         x="595.81946"
         width="256"
         height="256"
         id="image2298" />
      <image
         l:href="tiles/6333-2617.jpg"
         y="415.3494"
         x="851.81946"
         width="256"
         height="256"
         id="image2300" />
      <image
         l:href="tiles/6333-2618.jpg"
         y="415.3494"
         x="1107.8195"
         width="256"
         height="256"
         id="image2302" />
      <image
         l:href="tiles/6333-2619.jpg"
         y="415.3494"
         x="1363.8195"
         width="256"
         height="256"
         id="image2304" />
      <image
         l:href="tiles/6333-2620.jpg"
         y="415.3494"
         x="1619.8195"
         width="256"
         height="256"
         id="image2306" />
      <image
         l:href="tiles/6333-2621.jpg"
         y="415.3494"
         x="1875.8195"
         width="256"
         height="256"
         id="image2308" />
      <image
         l:href="tiles/6333-2622.jpg"
         y="415.3494"
         x="2131.8196"
         width="256"
         height="256"
         id="image2310" />
      <image
         l:href="tiles/6334-2616.jpg"
         y="671.34943"
         x="595.81946"
         width="256"
         height="256"
         id="image2312" />
      <image
         l:href="tiles/6334-2617.jpg"
         y="671.34943"
         x="851.81946"
         width="256"
         height="256"
         id="image2314" />
      <image
         l:href="tiles/6334-2618.jpg"
         y="671.34943"
         x="1107.8195"
         width="256"
         height="256"
         id="image2316" />
      <image
         l:href="tiles/6334-2619.jpg"
         y="671.34943"
         x="1363.8195"
         width="256"
         height="256"
         id="image2318" />
      <image
         l:href="tiles/6334-2620.jpg"
         y="671.34943"
         x="1619.8195"
         width="256"
         height="256"
         id="image2320" />
      <image
         l:href="tiles/6334-2621.jpg"
         y="671.34943"
         x="1875.8195"
         width="256"
         height="256"
         id="image2322" />
      <image
         l:href="tiles/6334-2622.jpg"
         y="671.34943"
         x="2131.8196"
         width="256"
         height="256"
         id="image2324" />
      <image
         l:href="tiles/6335-2616.jpg"
         y="927.34943"
         x="595.81946"
         width="256"
         height="256"
         id="image2326" />
      <image
         l:href="tiles/6335-2617.jpg"
         y="927.34943"
         x="851.81946"
         width="256"
         height="256"
         id="image2328" />
      <image
         l:href="tiles/6335-2618.jpg"
         y="927.34943"
         x="1107.8195"
         width="256"
         height="256"
         id="image2330" />
      <image
         l:href="tiles/6335-2619.jpg"
         y="927.34943"
         x="1363.8195"
         width="256"
         height="256"
         id="image2332" />
      <image
         l:href="tiles/6335-2620.jpg"
         y="927.34943"
         x="1619.8195"
         width="256"
         height="256"
         id="image2334" />
      <image
         l:href="tiles/6335-2621.jpg"
         y="927.34943"
         x="1875.8195"
         width="256"
         height="256"
         id="image2336" />
      <image
         l:href="tiles/6335-2622.jpg"
         y="927.34943"
         x="2131.8196"
         width="256"
         height="256"
         id="image2338" />
      <image
         l:href="tiles/6336-2616.jpg"
         y="1183.3494"
         x="595.81946"
         width="256"
         height="256"
         id="image2340" />
      <image
         l:href="tiles/6336-2617.jpg"
         y="1183.3494"
         x="851.81946"
         width="256"
         height="256"
         id="image2342" />
      <image
         l:href="tiles/6336-2618.jpg"
         y="1183.3494"
         x="1107.8195"
         width="256"
         height="256"
         id="image2344" />
      <image
         l:href="tiles/6336-2619.jpg"
         y="1183.3494"
         x="1363.8195"
         width="256"
         height="256"
         id="image2346" />
      <image
         l:href="tiles/6336-2620.jpg"
         y="1183.3494"
         x="1619.8195"
         width="256"
         height="256"
         id="image2348" />
      <image
         l:href="tiles/6336-2621.jpg"
         y="1183.3494"
         x="1875.8195"
         width="256"
         height="256"
         id="image2350" />
      <image
         l:href="tiles/6336-2622.jpg"
         y="1183.3494"
         x="2131.8196"
         width="256"
         height="256"
         id="image2352" />
    </g>
    <g>
      <path
         d="m 1811.584,170.73249 h -0.078 c -9.4323,0 -17.1058,7.67094 -17.1058,17.09964 0,6.1805 2.8147,14.33726 8.3659,24.2441 4.1156,7.34461 8.2889,12.96979 8.3307,13.02569 0.1162,0.15605 0.2993,0.24798 0.4933,0.24798 0.01,0 0.011,0 0.017,-2.6e-4 0.2002,-0.006 0.385,-0.10796 0.496,-0.27478 0.041,-0.0623 4.1847,-6.31961 8.2725,-13.97297 5.5172,-10.32985 8.3147,-18.15914 8.3147,-23.26976 -3e-4,-9.42883 -7.6739,-17.09964 -17.106,-17.09964 z m 7.8958,17.51752 c 0,4.3754 -3.5594,7.9348 -7.9349,7.9348 -4.3752,0 -7.9348,-3.55953 -7.9348,-7.9348 0,-4.37528 3.5596,-7.93482 7.9348,-7.93482 4.3755,0 7.9349,3.55954 7.9349,7.93482 z"
         id="path102"
         style="display:inline;fill:#00ff00;stroke-width:0.128221" />
      <path
         style="display:inline;fill:#0000ff;stroke-width:0.128221"
         id="path102-4"
         d="m 1583.3932,88.578483 h -0.078 c -9.4323,0 -17.1058,7.670932 -17.1058,17.099637 0,6.18049 2.8147,14.33725 8.3659,24.2441 4.1156,7.34461 8.2889,12.96979 8.3307,13.02569 0.1162,0.15605 0.2993,0.24798 0.4933,0.24798 0.01,0 0.011,0 0.017,-2.6e-4 0.2002,-0.006 0.385,-0.10796 0.496,-0.27478 0.041,-0.0623 4.1847,-6.31961 8.2724,-13.97297 5.5173,-10.32985 8.3148,-18.15914 8.3148,-23.26976 -3e-4,-9.428835 -7.674,-17.099637 -17.106,-17.099637 z m 7.8958,17.517517 c 0,4.37539 -3.5594,7.9348 -7.9349,7.9348 -4.3752,0 -7.9348,-3.55954 -7.9348,-7.9348 0,-4.37528 3.5596,-7.93482 7.9348,-7.93482 4.3755,0 7.9349,3.55954 7.9349,7.93482 z" />
      <path
         style="display:inline;fill:#0000ff;stroke-width:0.128221"
         id="path102-3"
         d="m 1129.1176,251.13766 h -0.078 c -9.4323,0 -17.1058,7.67093 -17.1058,17.09963 0,6.1805 2.8147,14.33726 8.3659,24.24411 4.1156,7.34461 8.2889,12.96978 8.3307,13.02569 0.1161,0.15604 0.2993,0.24797 0.4933,0.24797 0.01,0 0.011,0 0.017,-2.6e-4 0.2002,-0.006 0.385,-0.10796 0.496,-0.27478 0.041,-0.0623 4.1847,-6.31961 8.2724,-13.97297 5.5173,-10.32985 8.3148,-18.15913 8.3148,-23.26976 -3e-4,-9.42883 -7.674,-17.09963 -17.106,-17.09963 z m 7.8958,17.51751 c 0,4.3754 -3.5595,7.9348 -7.9349,7.9348 -4.3753,0 -7.9348,-3.55953 -7.9348,-7.9348 0,-4.37528 3.5595,-7.93482 7.9348,-7.93482 4.3754,0 7.9349,3.55954 7.9349,7.93482 z" />
      <path
         d="m 1269.3773,128.02935 h -0.078 c -9.4323,0 -17.1058,7.67093 -17.1058,17.09963 0,6.1805 2.8147,14.33726 8.3659,24.24411 4.1156,7.34461 8.2889,12.96978 8.3307,13.02569 0.1161,0.15604 0.2993,0.24797 0.4933,0.24797 0.01,0 0.011,0 0.017,-2.6e-4 0.2002,-0.006 0.385,-0.10796 0.496,-0.27478 0.041,-0.0623 4.1847,-6.3196 8.2724,-13.97297 5.5173,-10.32985 8.3148,-18.15913 8.3148,-23.26976 -3e-4,-9.42883 -7.674,-17.09963 -17.106,-17.09963 z m 7.8958,17.51751 c 0,4.3754 -3.5594,7.93481 -7.9349,7.93481 -4.3752,0 -7.9348,-3.55954 -7.9348,-7.93481 0,-4.37528 3.5596,-7.93482 7.9348,-7.93482 4.3755,0 7.9349,3.55954 7.9349,7.93482 z"
         id="path102-3-1"
         style="display:inline;fill:#0000ff;stroke-width:0.128221" />
      <path
         d="m 1426.4054,367.87811 h -0.078 c -9.4323,0 -17.1058,7.67094 -17.1058,17.09964 0,6.1805 2.8148,14.33725 8.366,24.2441 4.1156,7.34461 8.2888,12.96979 8.3307,13.02569 0.1161,0.15605 0.2993,0.24798 0.4933,0.24798 0.01,0 0.011,0 0.017,-2.6e-4 0.2002,-0.006 0.385,-0.10796 0.4959,-0.27478 0.041,-0.0623 4.1848,-6.31961 8.2725,-13.97297 5.5173,-10.32985 8.3148,-18.15914 8.3148,-23.26976 -3e-4,-9.42883 -7.674,-17.09964 -17.106,-17.09964 z m 7.8958,17.51752 c 0,4.3754 -3.5595,7.9348 -7.9349,7.9348 -4.3753,0 -7.9349,-3.55953 -7.9349,-7.9348 0,-4.37528 3.5596,-7.93482 7.9349,-7.93482 4.3754,0 7.9349,3.55954 7.9349,7.93482 z"
         id="path102-3-5"
         style="display:inline;fill:#0000ff;stroke-width:0.128221" />
      <path
         d="m 1662.007,462.82522 h -0.078 c -9.4323,0 -17.1058,7.67093 -17.1058,17.09963 0,6.1805 2.8147,14.33726 8.3659,24.24411 4.1157,7.34461 8.2889,12.96978 8.3307,13.02569 0.1162,0.15604 0.2994,0.24797 0.4934,0.24797 0.01,0 0.011,0 0.017,-2.6e-4 0.2002,-0.006 0.3849,-0.10796 0.4959,-0.27478 0.041,-0.0623 4.1848,-6.31961 8.2725,-13.97297 5.5173,-10.32985 8.3148,-18.15913 8.3148,-23.26976 -3e-4,-9.42883 -7.674,-17.09963 -17.106,-17.09963 z m 7.8958,17.51751 c 0,4.3754 -3.5595,7.9348 -7.935,7.9348 -4.3752,0 -7.9348,-3.55953 -7.9348,-7.9348 0,-4.37528 3.5596,-7.93482 7.9348,-7.93482 4.3755,0 7.935,3.55954 7.935,7.93482 z"
         id="path102-3-7"
         style="display:inline;fill:#d40000;stroke-width:0.128221" />
      <path
         style="display:inline"
         id="path2706"
         d="m 1809.966,226.29401 -49.1724,-69.06221 -18.7849,-17.67993 -13.2599,-8.83996 -1.6575,0.5525 -12.7074,-6.07747 -23.7574,-4.41998 -51.3823,8.83996 -9.3925,0.55249 -9.3924,6.62998 -5.525,1.105 -9.945,-2.7625 -3.3149,-5.52497 -1.105,-3.86749 -8.84,-1.10499 -1.6574,0.5525 -6.0776,5.52497 -4.9724,11.04996 v 2.76248 l 2.2099,-0.5525 -2.2099,0.5525 -1.6575,2.21 -4.42,1.65749 -1.6575,2.76249 h -2.7625 l -3.315,-3.31499 -9.3925,1.65749 -1.6575,-0.55249 -13.8123,-11.04995 -3.3151,-0.5525 -76.2446,11.60245 -10.4975,2.76248 -58.0122,9.39246 -6.63,1.6575 -4.42,3.86748 -3.3149,0.5525 -27.0725,-3.86748 -12.7074,-2.7625 -2.21,1.6575 -5.525,-1.6575 -7.7349,-7.73496 -0.5526,-6.62997 -1.1049,-2.76249 0.5525,-0.5525 -7.1825,-4.41998 -2.7625,-4.41998 -6.0774,-5.52498 -2.2101,-1.105 -3.8675,1.105 -3.3149,-2.20999 -8.2875,-2.20999 -1.105,-2.76249 -2.21,-0.55249 -7.735,4.97247 0.5526,1.65749 -1.1051,12.15495 1.1051,3.31499 3.3149,3.31499 -2.2099,2.76249 1.1049,1.10499 0.5526,2.76249 1.105,-0.5525 1.6574,2.76249 h 2.21 v 3.86749 l -7.1825,14.36493 -3.3149,3.86749 -1.6575,4.97247 -3.8675,6.07748 1.6575,-3.31498 -0.5525,-0.5525 0.5525,0.5525 -2.7625,5.52498 -0.5525,6.07747 -3.315,8.28746 2.21,7.73497 -4.9724,4.97248 -2.7625,8.28746 -4.9726,4.97249 1.105,8.83996 -3.3149,7.73497 -0.5526,6.07747 -6.6299,25.4149 -3.8675,7.18246 -7.1824,4.97249 -5.525,1.10499 -19.89,1.105 -8.2874,-1.6575 -4.9725,2.21 -2.21,6.62997 -5.525,3.31498 -2.7625,0.5525 -8.2875,-4.41998 -6.0774,1.105 -7.1825,5.52498 -3.3149,0.5525 h -6.63 l -12.7075,-4.97248 h -4.42 l -3.8675,1.10498 -4.4199,3.8675 1.6574,3.86748 -0.5524,0.5525 0.5524,-0.5525 -2.7624,-2.7625 -2.7625,2.21 0.5525,0.5525 -1.105,2.20999 -5.525,4.97248 v 1.65749 l 1.105,1.10499 -0.5524,1.105 2.2099,3.31498 1.105,15.46994 -1.105,1.105 1.6575,1.65749 -19.89,1.105 -9.3924,-1.6575 -2.21,-1.65749 h -7.1825 l -3.3149,-2.76249 0.5525,-4.41998 -1.105,-3.31499 7.735,-4.97248 4.9724,0.5525 3.315,2.76249 h 5.525 l 3.315,-1.65749 1.6575,1.65749 -1.1051,12.15495 2.7625,1.10499 1.1051,2.21 h -6.6301 l -9.3924,-1.6575 -2.21,-1.65749 -6.0774,0.5525 -3.8675,-2.20999 -0.5525,-3.31499 -6.0775,-0.5525 -2.21,2.20999 -7.1825,-1.65749 -0.5524,1.105 -2.7625,-0.5525 -1.105,1.65749 4.4199,9.39246 -1.6574,0.5525 -8.2875,-13.25995 v 1.105 l -3.315,2.20999 -0.5525,2.76249 2.21,2.20999 1.105,11.60246 1.1049,-0.5525 1.1051,3.86748 -3.8674,2.20999 -9.3925,1.6575 -2.2101,2.76248 2.2101,6.07748 9.3925,9.94496 2.7623,6.07747 1.1051,12.15495 -0.5525,13.81244 2.2099,18.78493 4.4201,0.5525 9.3924,5.52497 3.8675,3.86748 6.6299,9.94496 3.3151,7.73497 2.7625,2.76249 23.2048,-6.07748 34.2549,-13.25994 11.6024,-2.20999 4.9726,-2.20999 6.6299,-4.97249 6.0775,-2.76248 13.8124,-3.31498 10.4975,1.65748 13.8124,-0.55249 12.7074,7.18247 6.63,-1.6575 14.365,1.105 10.4975,-3.31498 14.9174,-7.18248 13.2599,-3.31498 5.525,1.105 16.0224,7.18246 h 3.315 l 7.735,-4.97248 9.9449,-8.28746 7.735,-1.65749 14.9174,-0.5525 23.2049,7.18247 22.0999,4.41998 20.4424,2.76249 13.8125,-6.07747 4.42,-3.31499 7.1824,-0.5525 2.7625,-1.105 9.945,0.5525 7.1824,-3.31498 7.7351,-1.105 3.3149,0.5525 2.7625,-1.6575 7.1825,-1.10499 15.4699,-1.10499 6.0775,-1.6575 4.9724,-2.76248 1.105,7.18246 32.0449,-4.97248 2.21,15.46994 10.4975,-1.65749 1.6575,7.18246 10.4974,-1.65748 2.21,13.81244 h 1.105 l 1.105,13.81244 85.6371,-6.62997 2.7625,25.96739 2.7625,41.43732"
         fill="none"
         stroke-linejoin="round"
         stroke-linecap="round"
         stroke-width="6"
         stroke-opacity="0.8"
         stroke="#00cc33"
         class="leaflet-interactive"
      />
    </g>
  </g>
</g>
</defs>
<rect width='297' height='210' x='0' y='0' stroke='#000' stroke-width='1' fill='none'/>

<use l:href='#a' transform='scale(0.1485)' x='0' y='0'/>

</svg>
